<svg width="128" height="128" viewBox="0 0 128 128" fill="none" xmlns="http://www.w3.org/2000/svg">
<rect width="128" height="128" fill="#5CBCF9"/>
<path d="M24.7529 91.3345C23.4197 92.0804 21.7763 91.1168 21.7763 89.5891V77.5526C21.7763 76.912 21.4669 76.3129 20.9593 75.9222C13.3286 70.0492 9 61.8269 9 53.0533C9 35.9308 25.598 22 46 22C66.402 22 83 35.9308 83 53.0531C83 70.1751 66.402 84.1062 46 84.1062C43.8158 84.1062 41.6181 83.9403 39.4463 83.6121C38.9963 83.544 38.5354 83.6225 38.1383 83.8448L24.7529 91.3345Z" fill="white"/>
<path d="M66.7529 97.3345C65.4197 98.0804 63.7763 97.1168 63.7763 95.5891V83.5526C63.7763 82.912 63.4644 82.3149 62.9656 81.9129C55.5953 75.9729 55 66.7708 55 58C55 40.8775 67.598 28 88 28C108.402 28 125 41.9308 125 59.0531C125 76.1751 108.402 90.1062 88 90.1062C85.8157 90.1062 83.618 89.9403 81.4462 89.6121C80.9962 89.544 80.5354 89.6225 80.1382 89.8448L66.7529 97.3345Z" fill="#1C4651"/>
<mask id="mask0_177_3" style="mask-type:alpha" maskUnits="userSpaceOnUse" x="51" y="28" width="74" height="70">
<path d="M66.7529 97.3345C65.4197 98.0804 63.7763 97.1168 63.7763 95.5891V83.5526C63.7763 82.912 63.4669 82.3129 62.9593 81.9222C55.3286 76.0492 51 67.8269 51 59.0533C51 41.9308 67.598 28 88 28C108.402 28 125 41.9308 125 59.0531C125 76.1751 108.402 90.1062 88 90.1062C85.8158 90.1062 83.6181 89.9403 81.4463 89.6121C80.9963 89.544 80.5354 89.6225 80.1383 89.8448L66.7529 97.3345Z" fill="#1C4651"/>
</mask>
<g mask="url(#mask0_177_3)">
<path d="M21.7763 93V76.5329C13.6383 70.6267 9 62.1354 9 53.0533C9 35.9308 25.598 22 46 22C66.402 22 83 35.9308 83 53.0531C83 70.1751 66.402 84.1062 46 84.1062C43.5827 84.1062 41.1488 83.903 38.7519 83.5014L21.7763 93Z" fill="#B2F37C"/>
</g>
</svg>
