<svg width="306" height="145" viewBox="0 0 306 145" fill="none" xmlns="http://www.w3.org/2000/svg">
<rect class="badge" x="31" y="30" width="244" height="85" rx="15" fill="white"/>
<path d="M97.2362 51.4347H94.0487C93.9577 50.9119 93.7901 50.4489 93.5458 50.0455C93.3015 49.6364 92.9975 49.2898 92.6339 49.0057C92.2702 48.7216 91.8555 48.5085 91.3896 48.3665C90.9293 48.2188 90.4322 48.1449 89.8981 48.1449C88.9492 48.1449 88.1083 48.3835 87.3754 48.8608C86.6424 49.3324 86.0685 50.0256 85.6538 50.9403C85.239 51.8494 85.0316 52.9602 85.0316 54.2727C85.0316 55.608 85.239 56.733 85.6538 57.6477C86.0742 58.5568 86.6481 59.2443 87.3754 59.7102C88.1083 60.1705 88.9464 60.4006 89.8896 60.4006C90.4123 60.4006 90.9009 60.3324 91.3555 60.196C91.8157 60.054 92.2276 59.8466 92.5913 59.5739C92.9606 59.3011 93.2702 58.9659 93.5202 58.5682C93.7759 58.1705 93.9521 57.7159 94.0487 57.2045L97.2362 57.2216C97.1168 58.0511 96.8583 58.8295 96.4606 59.5568C96.0685 60.2841 95.5543 60.9261 94.918 61.483C94.2816 62.0341 93.5373 62.4659 92.685 62.7784C91.8327 63.0852 90.8867 63.2386 89.8469 63.2386C88.3129 63.2386 86.9435 62.8835 85.739 62.1733C84.5344 61.4631 83.5856 60.4375 82.8924 59.0966C82.1992 57.7557 81.8526 56.1477 81.8526 54.2727C81.8526 52.392 82.2021 50.7841 82.9009 49.4489C83.5998 48.108 84.5515 47.0824 85.756 46.3722C86.9606 45.6619 88.3242 45.3068 89.8469 45.3068C90.8185 45.3068 91.7219 45.4432 92.5572 45.7159C93.3924 45.9886 94.1367 46.3892 94.7901 46.9176C95.4435 47.4403 95.9805 48.0824 96.4009 48.8438C96.8271 49.5994 97.1055 50.4631 97.2362 51.4347ZM105.706 63.2557C104.427 63.2557 103.319 62.9744 102.382 62.4119C101.444 61.8494 100.717 61.0625 100.2 60.0511C99.6886 59.0398 99.4329 57.858 99.4329 56.5057C99.4329 55.1534 99.6886 53.9687 100.2 52.9517C100.717 51.9347 101.444 51.1449 102.382 50.5824C103.319 50.0199 104.427 49.7386 105.706 49.7386C106.984 49.7386 108.092 50.0199 109.029 50.5824C109.967 51.1449 110.691 51.9347 111.203 52.9517C111.72 53.9687 111.978 55.1534 111.978 56.5057C111.978 57.858 111.72 59.0398 111.203 60.0511C110.691 61.0625 109.967 61.8494 109.029 62.4119C108.092 62.9744 106.984 63.2557 105.706 63.2557ZM105.723 60.7841C106.416 60.7841 106.995 60.5937 107.461 60.2131C107.927 59.8267 108.274 59.3097 108.501 58.6619C108.734 58.0142 108.85 57.2926 108.85 56.4972C108.85 55.696 108.734 54.9716 108.501 54.3239C108.274 53.6705 107.927 53.1506 107.461 52.7642C106.995 52.3778 106.416 52.1847 105.723 52.1847C105.012 52.1847 104.422 52.3778 103.95 52.7642C103.484 53.1506 103.135 53.6705 102.902 54.3239C102.674 54.9716 102.561 55.696 102.561 56.4972C102.561 57.2926 102.674 58.0142 102.902 58.6619C103.135 59.3097 103.484 59.8267 103.95 60.2131C104.422 60.5937 105.012 60.7841 105.723 60.7841ZM114.597 63V49.9091H117.546V52.1335H117.699C117.972 51.3835 118.424 50.7983 119.054 50.3778C119.685 49.9517 120.438 49.7386 121.313 49.7386C122.199 49.7386 122.946 49.9545 123.554 50.3864C124.168 50.8125 124.6 51.3949 124.85 52.1335H124.986C125.276 51.4062 125.765 50.8267 126.452 50.3949C127.145 49.9574 127.966 49.7386 128.915 49.7386C130.12 49.7386 131.103 50.1193 131.864 50.8807C132.625 51.642 133.006 52.7528 133.006 54.2131V63H129.912V54.6903C129.912 53.8778 129.696 53.2841 129.265 52.9091C128.833 52.5284 128.304 52.3381 127.679 52.3381C126.935 52.3381 126.353 52.571 125.932 53.0369C125.517 53.4972 125.31 54.0966 125.31 54.8352V63H122.284V54.5625C122.284 53.8864 122.08 53.3466 121.671 52.9432C121.267 52.5398 120.739 52.3381 120.086 52.3381C119.642 52.3381 119.239 52.4517 118.875 52.679C118.512 52.9006 118.222 53.2159 118.006 53.625C117.79 54.0284 117.682 54.5 117.682 55.0398V63H114.597ZM136.136 63V49.9091H139.085V52.1335H139.238C139.511 51.3835 139.963 50.7983 140.593 50.3778C141.224 49.9517 141.977 49.7386 142.852 49.7386C143.738 49.7386 144.485 49.9545 145.093 50.3864C145.707 50.8125 146.139 51.3949 146.389 52.1335H146.525C146.815 51.4062 147.304 50.8267 147.991 50.3949C148.684 49.9574 149.505 49.7386 150.454 49.7386C151.659 49.7386 152.642 50.1193 153.403 50.8807C154.164 51.642 154.545 52.7528 154.545 54.2131V63H151.451V54.6903C151.451 53.8778 151.235 53.2841 150.804 52.9091C150.372 52.5284 149.843 52.3381 149.218 52.3381C148.474 52.3381 147.892 52.571 147.471 53.0369C147.056 53.4972 146.849 54.0966 146.849 54.8352V63H143.824V54.5625C143.824 53.8864 143.619 53.3466 143.21 52.9432C142.806 52.5398 142.278 52.3381 141.625 52.3381C141.181 52.3381 140.778 52.4517 140.414 52.679C140.051 52.9006 139.761 53.2159 139.545 53.625C139.329 54.0284 139.221 54.5 139.221 55.0398V63H136.136ZM157.675 63V49.9091H160.76V63H157.675ZM159.226 48.0511C158.738 48.0511 158.317 47.8892 157.965 47.5653C157.613 47.2358 157.436 46.8409 157.436 46.3807C157.436 45.9148 157.613 45.5199 157.965 45.196C158.317 44.8665 158.738 44.7017 159.226 44.7017C159.721 44.7017 160.141 44.8665 160.488 45.196C160.84 45.5199 161.016 45.9148 161.016 46.3807C161.016 46.8409 160.84 47.2358 160.488 47.5653C160.141 47.8892 159.721 48.0511 159.226 48.0511ZM170.47 49.9091V52.2955H162.944V49.9091H170.47ZM164.802 46.7727H167.887V59.0625C167.887 59.4773 167.95 59.7955 168.075 60.017C168.206 60.233 168.376 60.3807 168.586 60.4602C168.797 60.5398 169.029 60.5795 169.285 60.5795C169.478 60.5795 169.654 60.5653 169.814 60.5369C169.978 60.5085 170.103 60.483 170.189 60.4602L170.708 62.8722C170.544 62.929 170.308 62.9915 170.001 63.0597C169.7 63.1278 169.331 63.1676 168.893 63.179C168.12 63.2017 167.424 63.0852 166.805 62.8295C166.186 62.5682 165.694 62.1648 165.331 61.6193C164.973 61.0739 164.797 60.392 164.802 59.5739V46.7727ZM174.951 63.1875C174.434 63.1875 173.99 63.0057 173.621 62.642C173.252 62.2784 173.07 61.8352 173.076 61.3125C173.07 60.8011 173.252 60.3636 173.621 60C173.99 59.6364 174.434 59.4545 174.951 59.4545C175.451 59.4545 175.885 59.6364 176.255 60C176.63 60.3636 176.82 60.8011 176.826 61.3125C176.82 61.6591 176.729 61.9744 176.553 62.2585C176.382 62.5426 176.155 62.7699 175.871 62.9403C175.593 63.1051 175.286 63.1875 174.951 63.1875ZM174.951 53.8466C174.434 53.8466 173.99 53.6648 173.621 53.3011C173.252 52.9318 173.07 52.4886 173.076 51.9716C173.07 51.4602 173.252 51.0227 173.621 50.6591C173.99 50.2898 174.434 50.1051 174.951 50.1051C175.451 50.1051 175.885 50.2898 176.255 50.6591C176.63 51.0227 176.82 51.4602 176.826 51.9716C176.82 52.3125 176.729 52.625 176.553 52.9091C176.382 53.1932 176.155 53.4205 175.871 53.5909C175.593 53.7614 175.286 53.8466 174.951 53.8466Z" fill="black"/>
<text class="commit_nb" fill="black" x="170" y="95" >+200</text>
<rect class="badge small" x="258" y="15" width="33" height="33" rx="15" fill="#BDE9F8"/>
<rect class="badge small" x="217" y="15" width="33" height="33" rx="15" fill="#F8EBBD"/>
<path d="M66.341 51.3196C66.341 51.3196 65.4083 51.0882 65.7867 50.2537L68.1011 46.4077L66.2253 44.6518L65.8502 44.3006L62.1832 46.7109C61.6986 46.9274 61.1364 46.651 61.0119 46.1351L60.0421 42.1187H57.4727H56.9588L55.9922 46.1197C55.8695 46.6281 55.319 46.9315 54.8398 46.7218C54.8322 46.7185 54.8246 46.715 54.817 46.7116L51.15 44.3012L50.7749 44.6524L48.8991 46.4083L51.2135 50.2543C51.5919 51.0888 50.6593 51.3203 50.6593 51.3203L46.3032 52.4033L46.388 54.9713L46.4049 55.4849L50.7022 56.3735C51.1914 56.5606 51.396 57.1419 51.1317 57.5942L51.1148 57.6231L48.8004 61.469L50.6762 63.225L51.0514 63.5761L54.7183 61.1659C54.726 61.1624 54.7337 61.1593 54.7412 61.1556C54.7412 61.1556 54.7471 61.1535 54.7582 61.1499C55.3547 60.9563 55.988 61.3279 56.1352 61.9374L57.0574 65.7575H57.5713H60.1408L61.1105 61.741C61.235 61.2251 61.7972 60.9488 62.2818 61.1652L65.9488 63.5755L66.3239 63.2244L68.1997 61.4684L65.8853 57.6224L65.8685 57.5935C65.6042 57.1413 65.8087 56.56 66.298 56.3728L70.5952 55.4843L70.6122 54.9707L70.6969 52.4026L66.341 51.3196ZM58.5001 59.0769C55.662 59.0769 53.3612 56.7762 53.3612 53.938C53.3612 51.0999 55.662 48.7992 58.5001 48.7992C61.3382 48.7992 63.639 51.0999 63.639 53.938C63.639 56.7762 61.3382 59.0769 58.5001 59.0769Z" fill="#D0CFCE"/>
<path d="M58.5002 48.7991C55.6621 48.7991 53.3613 51.0999 53.3613 53.938C53.3613 56.7761 55.6621 59.0768 58.5002 59.0768C61.3383 59.0768 63.6391 56.7761 63.6391 53.938C63.6391 51.0999 61.3383 48.7991 58.5002 48.7991ZM58.5002 56.5074C57.0812 56.5074 55.9308 55.357 55.9308 53.938C55.9308 52.5189 57.0812 51.3685 58.5002 51.3685C59.9193 51.3685 61.0697 52.5189 61.0697 53.938C61.0697 55.357 59.9193 56.5074 58.5002 56.5074Z" fill="#9B9B9A"/>
<path d="M58.5001 56.5075C59.9192 56.5075 61.0696 55.3572 61.0696 53.9381C61.0696 52.519 59.9192 51.3687 58.5001 51.3687C57.081 51.3687 55.9307 52.519 55.9307 53.9381C55.9307 55.3572 57.081 56.5075 58.5001 56.5075Z" stroke="black" stroke-miterlimit="10" stroke-linecap="round" stroke-linejoin="round"/>
<path d="M58.5002 59.0771C61.3383 59.0771 63.6391 56.7763 63.6391 53.9382C63.6391 51.1001 61.3383 48.7993 58.5002 48.7993C55.6621 48.7993 53.3613 51.1001 53.3613 53.9382C53.3613 56.7763 55.6621 59.0771 58.5002 59.0771Z" stroke="black" stroke-miterlimit="10" stroke-linecap="round" stroke-linejoin="round"/>
<path d="M55.9918 46.1196C55.869 46.6281 55.3186 46.9315 54.8394 46.7218C54.8318 46.7184 54.8241 46.715 54.8165 46.7115L51.1495 44.3012L50.7744 44.6524L48.8986 46.4084L51.213 50.2543C51.5914 51.0888 50.6588 51.3203 50.6588 51.3203L46.3027 52.4033L46.3875 54.9714L46.4044 55.485L50.7017 56.3736C51.1909 56.5607 51.3955 57.142 51.1312 57.5943L51.1144 57.6231L48.8 61.4691L50.6758 63.225L51.0509 63.5762L54.7179 61.1659C54.7255 61.1625 54.7333 61.1593 54.7407 61.1557C54.7407 61.1557 54.7467 61.1536 54.7578 61.15C55.3542 60.9563 55.9875 61.3279 56.1347 61.9374L57.057 65.7575H57.5709H60.1403L61.11 61.7411C61.2345 61.2251 61.7967 60.9488 62.2813 61.1653L65.9483 63.5756L66.3234 63.2244L68.1992 61.4684L65.8848 57.6225L65.868 57.5936C65.6037 57.1413 65.8083 56.56 66.2975 56.3729L70.5948 55.4843L70.6117 54.9707L70.6965 52.4026L66.3404 51.3196C66.3404 51.3196 65.4078 51.0881 65.7862 50.2536L68.1006 46.4077L66.2248 44.6517L65.8497 44.3005L62.1827 46.7108C61.6981 46.9273 61.1359 46.6509 61.0114 46.135L60.0417 42.1187H57.4722H56.9583L55.9918 46.1196Z" stroke="black" stroke-miterlimit="10" stroke-linecap="round" stroke-linejoin="round"/>
<g clip-path="url(#clip0_206_10)">
<path d="M274.448 35.845C278.453 35.845 281.7 33.9396 281.7 31.5891C281.7 29.2387 278.453 27.3333 274.448 27.3333C270.443 27.3333 267.196 29.2387 267.196 31.5891C267.196 33.9396 270.443 35.845 274.448 35.845Z" fill="white"/>
<path d="M274.448 35.845C278.453 35.845 281.7 33.9396 281.7 31.5891C281.7 29.2387 278.453 27.3333 274.448 27.3333C270.443 27.3333 267.196 29.2387 267.196 31.5891C267.196 33.9396 270.443 35.845 274.448 35.845Z" fill="white"/>
<path d="M274.5 34.717C276.281 34.717 277.726 33.2728 277.726 31.4912C277.726 29.7096 276.281 28.2654 274.5 28.2654C272.718 28.2654 271.274 29.7096 271.274 31.4912C271.274 33.2728 272.718 34.717 274.5 34.717Z" fill="#A57939"/>
<path d="M274.448 35.845C278.453 35.845 281.7 33.9396 281.7 31.5891C281.7 29.2387 278.453 27.3333 274.448 27.3333C270.443 27.3333 267.196 29.2387 267.196 31.5891C267.196 33.9396 270.443 35.845 274.448 35.845Z" stroke="black" stroke-width="0.5" stroke-miterlimit="10" stroke-linecap="round" stroke-linejoin="round"/>
<path d="M274.5 33.25C275.471 33.25 276.259 32.4626 276.259 31.4913C276.259 30.52 275.471 29.7327 274.5 29.7327C273.529 29.7327 272.741 30.52 272.741 31.4913C272.741 32.4626 273.529 33.25 274.5 33.25Z" fill="black"/>
<path d="M274.5 33.25C275.471 33.25 276.259 32.4626 276.259 31.4913C276.259 30.52 275.471 29.7327 274.5 29.7327C273.529 29.7327 272.741 30.52 272.741 31.4913C272.741 32.4626 273.529 33.25 274.5 33.25Z" stroke="black" stroke-width="0.5" stroke-miterlimit="10" stroke-linecap="round" stroke-linejoin="round"/>
<path d="M274.5 34.717C276.281 34.717 277.726 33.2728 277.726 31.4912C277.726 29.7096 276.281 28.2654 274.5 28.2654C272.718 28.2654 271.274 29.7096 271.274 31.4912C271.274 33.2728 272.718 34.717 274.5 34.717Z" stroke="black" stroke-width="0.5" stroke-miterlimit="10" stroke-linecap="round" stroke-linejoin="round"/>
</g>
<path d="M227.833 35.6943L239.131 35.6589V24.8687H228.7L227.833 25.7777V35.6943Z" fill="white"/>
<path d="M237.986 36.4026H227.833C227.703 36.4026 227.597 36.297 227.597 36.1668V26.0133C227.597 25.8831 227.703 25.7776 227.833 25.7776H237.986C238.117 25.7776 238.222 25.8831 238.222 26.0133V36.1668C238.222 36.297 238.117 36.4026 237.986 36.4026Z" fill="#D22F27"/>
<path d="M227.597 26.0138L228.777 24.8333H238.931C239.061 24.8333 239.167 24.9388 239.167 25.069V35.2225C239.167 35.3527 239.061 35.4583 238.931 35.4583" stroke="black" stroke-width="0.5" stroke-miterlimit="10" stroke-linecap="round" stroke-linejoin="round"/>
<path d="M237.986 36.4026H227.833C227.703 36.4026 227.597 36.297 227.597 36.1668V26.0133C227.597 25.8831 227.703 25.7776 227.833 25.7776H237.986C238.117 25.7776 238.222 25.8831 238.222 26.0133V36.1668C238.222 36.297 238.117 36.4026 237.986 36.4026Z" stroke="black" stroke-width="0.5" stroke-miterlimit="10" stroke-linecap="round" stroke-linejoin="round"/>
<defs>
<clipPath id="clip0_206_10">
<rect width="15" height="15" fill="white" transform="translate(267 24)"/>
</clipPath>
</defs>
</svg>
