<svg class="badge" width="306" height="145" viewBox="0 0 306 145" fill="none" xmlns="http://www.w3.org/2000/svg">
<g filter="url(#filter0_d_209_72)">
<rect class="shadow main" x="31" y="39" width="244" height="67" rx="15" fill="white"/>
</g>
<path d="M113.604 81.168C112.436 81.168 111.38 80.968 110.436 80.568C109.508 80.168 108.772 79.592 108.228 78.84C107.684 78.088 107.404 77.2 107.388 76.176H110.988C111.036 76.864 111.276 77.408 111.708 77.808C112.156 78.208 112.764 78.408 113.532 78.408C114.316 78.408 114.932 78.224 115.38 77.856C115.828 77.472 116.052 76.976 116.052 76.368C116.052 75.872 115.9 75.464 115.596 75.144C115.292 74.824 114.908 74.576 114.444 74.4C113.996 74.208 113.372 74 112.572 73.776C111.484 73.456 110.596 73.144 109.908 72.84C109.236 72.52 108.652 72.048 108.156 71.424C107.676 70.784 107.436 69.936 107.436 68.88C107.436 67.888 107.684 67.024 108.18 66.288C108.676 65.552 109.372 64.992 110.268 64.608C111.164 64.208 112.188 64.008 113.34 64.008C115.068 64.008 116.468 64.432 117.54 65.28C118.628 66.112 119.228 67.28 119.34 68.784H115.644C115.612 68.208 115.364 67.736 114.9 67.368C114.452 66.984 113.852 66.792 113.1 66.792C112.444 66.792 111.916 66.96 111.516 67.296C111.132 67.632 110.94 68.12 110.94 68.76C110.94 69.208 111.084 69.584 111.372 69.888C111.676 70.176 112.044 70.416 112.476 70.608C112.924 70.784 113.548 70.992 114.348 71.232C115.436 71.552 116.324 71.872 117.012 72.192C117.7 72.512 118.292 72.992 118.788 73.632C119.284 74.272 119.532 75.112 119.532 76.152C119.532 77.048 119.3 77.88 118.836 78.648C118.372 79.416 117.692 80.032 116.796 80.496C115.9 80.944 114.836 81.168 113.604 81.168ZM125.805 69.624C126.237 69.016 126.829 68.512 127.581 68.112C128.349 67.696 129.221 67.488 130.197 67.488C131.333 67.488 132.357 67.768 133.269 68.328C134.197 68.888 134.925 69.688 135.453 70.728C135.997 71.752 136.269 72.944 136.269 74.304C136.269 75.664 135.997 76.872 135.453 77.928C134.925 78.968 134.197 79.776 133.269 80.352C132.357 80.928 131.333 81.216 130.197 81.216C129.221 81.216 128.357 81.016 127.605 80.616C126.869 80.216 126.269 79.712 125.805 79.104V87.336H122.445V67.704H125.805V69.624ZM132.837 74.304C132.837 73.504 132.669 72.816 132.333 72.24C132.013 71.648 131.581 71.2 131.037 70.896C130.509 70.592 129.933 70.44 129.309 70.44C128.701 70.44 128.125 70.6 127.581 70.92C127.053 71.224 126.621 71.672 126.285 72.264C125.965 72.856 125.805 73.552 125.805 74.352C125.805 75.152 125.965 75.848 126.285 76.44C126.621 77.032 127.053 77.488 127.581 77.808C128.125 78.112 128.701 78.264 129.309 78.264C129.933 78.264 130.509 78.104 131.037 77.784C131.581 77.464 132.013 77.008 132.333 76.416C132.669 75.824 132.837 75.12 132.837 74.304ZM137.847 74.304C137.847 72.96 138.111 71.768 138.639 70.728C139.183 69.688 139.911 68.888 140.823 68.328C141.751 67.768 142.783 67.488 143.919 67.488C144.911 67.488 145.775 67.688 146.511 68.088C147.263 68.488 147.863 68.992 148.311 69.6V67.704H151.695V81H148.311V79.056C147.879 79.68 147.279 80.2 146.511 80.616C145.759 81.016 144.887 81.216 143.895 81.216C142.775 81.216 141.751 80.928 140.823 80.352C139.911 79.776 139.183 78.968 138.639 77.928C138.111 76.872 137.847 75.664 137.847 74.304ZM148.311 74.352C148.311 73.536 148.151 72.84 147.831 72.264C147.511 71.672 147.079 71.224 146.535 70.92C145.991 70.6 145.407 70.44 144.783 70.44C144.159 70.44 143.583 70.592 143.055 70.896C142.527 71.2 142.095 71.648 141.759 72.24C141.439 72.816 141.279 73.504 141.279 74.304C141.279 75.104 141.439 75.808 141.759 76.416C142.095 77.008 142.527 77.464 143.055 77.784C143.599 78.104 144.175 78.264 144.783 78.264C145.407 78.264 145.991 78.112 146.535 77.808C147.079 77.488 147.511 77.04 147.831 76.464C148.151 75.872 148.311 75.168 148.311 74.352ZM154.112 74.352C154.112 72.976 154.392 71.776 154.952 70.752C155.512 69.712 156.288 68.912 157.28 68.352C158.272 67.776 159.408 67.488 160.688 67.488C162.336 67.488 163.696 67.904 164.768 68.736C165.856 69.552 166.584 70.704 166.952 72.192H163.328C163.136 71.616 162.808 71.168 162.344 70.848C161.896 70.512 161.336 70.344 160.664 70.344C159.704 70.344 158.944 70.696 158.384 71.4C157.824 72.088 157.544 73.072 157.544 74.352C157.544 75.616 157.824 76.6 158.384 77.304C158.944 77.992 159.704 78.336 160.664 78.336C162.024 78.336 162.912 77.728 163.328 76.512H166.952C166.584 77.952 165.856 79.096 164.768 79.944C163.68 80.792 162.32 81.216 160.688 81.216C159.408 81.216 158.272 80.936 157.28 80.376C156.288 79.8 155.512 79 154.952 77.976C154.392 76.936 154.112 75.728 154.112 74.352ZM181.774 74.064C181.774 74.544 181.742 74.976 181.678 75.36H171.958C172.038 76.32 172.374 77.072 172.966 77.616C173.558 78.16 174.286 78.432 175.15 78.432C176.398 78.432 177.286 77.896 177.814 76.824H181.438C181.054 78.104 180.318 79.16 179.23 79.992C178.142 80.808 176.806 81.216 175.222 81.216C173.942 81.216 172.79 80.936 171.766 80.376C170.758 79.8 169.966 78.992 169.39 77.952C168.83 76.912 168.55 75.712 168.55 74.352C168.55 72.976 168.83 71.768 169.39 70.728C169.95 69.688 170.734 68.888 171.742 68.328C172.75 67.768 173.91 67.488 175.222 67.488C176.486 67.488 177.614 67.76 178.606 68.304C179.614 68.848 180.39 69.624 180.934 70.632C181.494 71.624 181.774 72.768 181.774 74.064ZM178.294 73.104C178.278 72.24 177.966 71.552 177.358 71.04C176.75 70.512 176.006 70.248 175.126 70.248C174.294 70.248 173.59 70.504 173.014 71.016C172.454 71.512 172.11 72.208 171.982 73.104H178.294ZM200.289 64.248V66.96H193.305V71.256H198.657V73.92H193.305V81H189.945V64.248H200.289ZM201.808 74.304C201.808 72.96 202.072 71.768 202.6 70.728C203.144 69.688 203.872 68.888 204.784 68.328C205.712 67.768 206.744 67.488 207.88 67.488C208.872 67.488 209.736 67.688 210.472 68.088C211.224 68.488 211.824 68.992 212.272 69.6V67.704H215.656V81H212.272V79.056C211.84 79.68 211.24 80.2 210.472 80.616C209.72 81.016 208.848 81.216 207.856 81.216C206.736 81.216 205.712 80.928 204.784 80.352C203.872 79.776 203.144 78.968 202.6 77.928C202.072 76.872 201.808 75.664 201.808 74.304ZM212.272 74.352C212.272 73.536 212.112 72.84 211.792 72.264C211.472 71.672 211.04 71.224 210.496 70.92C209.952 70.6 209.368 70.44 208.744 70.44C208.12 70.44 207.544 70.592 207.016 70.896C206.488 71.2 206.056 71.648 205.72 72.24C205.4 72.816 205.24 73.504 205.24 74.304C205.24 75.104 205.4 75.808 205.72 76.416C206.056 77.008 206.488 77.464 207.016 77.784C207.56 78.104 208.136 78.264 208.744 78.264C209.368 78.264 209.952 78.112 210.496 77.808C211.04 77.488 211.472 77.04 211.792 76.464C212.112 75.872 212.272 75.168 212.272 74.352ZM226.305 67.512C227.889 67.512 229.169 68.016 230.145 69.024C231.121 70.016 231.609 71.408 231.609 73.2V81H228.249V73.656C228.249 72.6 227.985 71.792 227.457 71.232C226.929 70.656 226.209 70.368 225.297 70.368C224.369 70.368 223.633 70.656 223.089 71.232C222.561 71.792 222.297 72.6 222.297 73.656V81H218.937V67.704H222.297V69.36C222.745 68.784 223.313 68.336 224.001 68.016C224.705 67.68 225.473 67.512 226.305 67.512Z" fill="black"/>
<g filter="url(#filter1_d_209_72)">
<rect class="shadow small" x="258" y="22" width="33" height="33" rx="15" fill="#F8BDBD"/>
</g>
<g clip-path="url(#clip0_209_72)">
<path d="M74.9554 79.7299C73.2007 81.4874 72.3711 83.93 72.7498 86.2233C75.0432 86.599 77.4844 85.7679 79.2404 84.0138C80.9951 82.2564 81.8247 79.8138 81.4459 77.5205C79.1526 77.1448 76.7113 77.9758 74.9554 79.7299Z" fill="#FCEA2B"/>
<path d="M83.7628 78.4661C83.6562 79.0027 83.393 79.4958 83.0063 79.8831C82.8181 80.0705 82.6038 80.2298 82.3701 80.3562C83.5716 82.0071 84.4578 83.8477 84.9786 85.7732C85.3726 85.4279 85.7511 85.0629 86.1128 84.6796C87.1759 83.5495 88.0846 82.2698 88.8082 80.8837C89.503 79.5392 90.0166 78.1103 90.3327 76.6418C88.2613 77.7276 86.015 78.3513 83.7627 78.4661L83.7628 78.4661Z" fill="#61B2E4"/>
<path d="M74.2907 72.8606C73.9074 73.2217 73.5423 73.5997 73.1968 73.993C75.1236 74.5104 76.966 75.3935 78.6192 76.5921C78.745 76.3621 78.9028 76.151 79.0878 75.9654C79.4739 75.5801 79.9651 75.3173 80.4999 75.2099C80.6169 72.9595 81.2423 70.7155 82.3293 68.6466C82.3304 68.6445 82.3314 68.6425 82.3324 68.6404C80.863 68.9563 79.4331 69.4697 78.0877 70.1645C76.7011 70.8884 75.4211 71.7972 74.2907 72.8606Z" fill="#92D3F5"/>
<path d="M85.345 64.5261C82.4387 67.4431 80.697 71.2836 80.499 75.2111C81.4088 75.0267 82.3505 75.31 83.0074 75.9657C83.6662 76.6251 83.9494 77.5714 83.7607 78.4842C87.6915 78.2837 91.534 76.5384 94.4507 73.6287C98.1794 69.8938 99.942 64.7026 99.1361 59.8293C98.174 59.6722 97.1892 59.6138 96.1964 59.6548C92.2107 59.8173 88.3021 61.5719 85.3452 64.5257L85.345 64.5261ZM91.0389 64.2321C92.0618 63.2092 93.7205 63.2089 94.7437 64.2314C94.744 64.2317 94.7442 64.2319 94.7444 64.2321C95.7676 65.2547 95.768 66.9129 94.7451 67.9358C94.7449 67.9361 94.7446 67.9363 94.7444 67.9365C93.7211 68.9589 92.0625 68.9586 91.0397 67.9357C90.0165 66.9132 90.0161 65.2551 91.0389 64.2321Z" fill="#EA5A47"/>
<path d="M80.7433 81.9094C80.2569 82.4556 79.6936 82.9354 79.0726 83.3326C77.1334 84.5675 74.7813 84.9073 72.7165 84.2509C72.6335 84.9156 72.6447 85.5796 72.7499 86.2229C75.0432 86.5986 77.4845 85.7676 79.2404 84.0135C79.8542 83.3951 80.3631 82.6826 80.7435 81.9094H80.7433Z" fill="#F1B31C"/>
<path d="M80.558 74.4927C80.5397 74.7305 80.527 74.9681 80.52 75.2054C81.424 75.0299 82.3561 75.3147 83.0074 75.9656C83.6663 76.6249 83.9494 77.5713 83.7607 78.484C87.6913 78.283 91.5334 76.5374 94.4496 73.6278C95.2792 72.7907 96.02 71.8712 96.6577 70.8867C95.9093 71.5682 95.0994 72.1836 94.2394 72.7242C90.0409 75.3413 84.9651 75.9974 80.5577 74.4926L80.558 74.4927Z" fill="#D22F27"/>
<path d="M79.3552 79.9728C79.8387 79.7299 80.311 79.4629 80.7719 79.1739C82.1293 78.3227 83.3705 77.2825 84.4549 76.0877L84.4564 76.0862C85.501 74.9244 86.3867 73.6313 87.0858 72.246C87.1197 72.1792 87.1395 72.106 87.144 72.0312C85.2559 71.6127 78.8962 77.7262 79.3552 79.9728Z" fill="#61B2E4"/>
<path d="M92.8919 69.3833C91.0718 69.3833 89.5913 67.9032 89.5913 66.0837C89.5913 64.2642 91.0718 62.7842 92.8919 62.7842C94.7119 62.7842 96.1924 64.2642 96.1924 66.0837C96.1924 67.9032 94.7119 69.3833 92.8919 69.3833ZM92.8919 63.884C91.6786 63.884 90.6915 64.8705 90.6915 66.0837C90.6915 67.2969 91.6786 68.2835 92.8919 68.2835C94.1051 68.2835 95.0923 67.2969 95.0923 66.0837C95.0923 64.8705 94.1051 63.884 92.8919 63.884Z" fill="black"/>
<path d="M77.4738 78.0352C76.5416 78.4287 75.6837 79.006 74.9555 79.73C73.201 81.4873 72.3712 83.9297 72.7497 86.2228C75.0431 86.5985 77.4842 85.7675 79.2403 84.0134C79.9649 83.2854 80.5428 82.4278 80.9368 81.4958" stroke="black" stroke-miterlimit="10" stroke-linecap="round" stroke-linejoin="round"/>
<path d="M74.2907 72.8606C73.9074 73.2217 73.5423 73.5997 73.1968 73.993C75.1236 74.5104 76.966 75.3935 78.6192 76.5921C78.745 76.3621 78.9028 76.151 79.0878 75.9654C79.4739 75.5801 79.9651 75.3173 80.4999 75.2099C80.6169 72.9595 81.2423 70.7155 82.3293 68.6466C82.3304 68.6445 82.3314 68.6425 82.3324 68.6404C80.863 68.9563 79.4331 69.4697 78.0877 70.1645C76.7011 70.8884 75.4211 71.7972 74.2907 72.8606Z" stroke="black" stroke-miterlimit="10" stroke-linecap="round" stroke-linejoin="round"/>
<path d="M83.7628 78.4661C83.6562 79.0027 83.393 79.4958 83.0063 79.8831C82.8181 80.0705 82.6038 80.2298 82.3701 80.3562C83.5716 82.0071 84.4578 83.8477 84.9786 85.7732C85.3726 85.4279 85.7511 85.0629 86.1128 84.6796C87.1759 83.5495 88.0846 82.2698 88.8082 80.8837C89.503 79.5392 90.0166 78.1103 90.3327 76.6418C88.2613 77.7276 86.015 78.3513 83.7627 78.4661L83.7628 78.4661Z" stroke="black" stroke-miterlimit="10" stroke-linecap="round" stroke-linejoin="round"/>
<path d="M83.6835 77.0806C83.8332 77.573 83.8227 78.0206 83.7596 78.4831C87.6907 78.2825 91.5335 76.537 94.4502 73.6269C98.1783 69.8927 99.9411 64.703 99.1364 59.8302C94.2635 59.0322 89.0764 60.798 85.3458 64.5251C82.439 67.4423 80.697 71.2829 80.499 75.2107C81.022 75.1047 81.5537 75.1584 82.0375 75.3433" stroke="black" stroke-miterlimit="10" stroke-linecap="round" stroke-linejoin="round"/>
<path d="M86.5955 71.9978H86.5954C85.2534 72.6746 83.9996 73.5326 82.8734 74.5447C81.7151 75.5953 80.7067 76.7978 79.8821 78.112C79.6021 78.5581 79.3441 79.016 79.1089 79.4839" stroke="black" stroke-miterlimit="10" stroke-linecap="round" stroke-linejoin="round"/>
</g>
<path d="M281.528 34.9444C281.528 33.0267 279.973 31.4722 278.056 31.4722C276.735 31.4722 275.587 32.2093 275 33.2943C274.413 32.2093 273.265 31.4722 271.944 31.4722C270.027 31.4722 268.472 33.0267 268.472 34.9444C268.472 35.7694 268.761 36.5261 269.242 37.1218L269.241 37.1228L275 44.261L280.759 37.1228L280.758 37.1218C281.239 36.5261 281.528 35.7694 281.528 34.9444Z" fill="#EA5A47"/>
<path d="M281.528 34.9444C281.528 33.0267 279.973 31.4722 278.056 31.4722C276.735 31.4722 275.587 32.2093 275 33.2943C274.413 32.2093 273.265 31.4722 271.944 31.4722C270.027 31.4722 268.472 33.0267 268.472 34.9444C268.472 35.7694 268.761 36.5261 269.242 37.1218L269.241 37.1228L275 44.261L280.759 37.1228L280.758 37.1218C281.239 36.5261 281.528 35.7694 281.528 34.9444Z" stroke="black" stroke-miterlimit="10" stroke-linejoin="round"/>
<defs>
<filter id="filter0_d_209_72" x="31" y="39" width="252" height="75" filterUnits="userSpaceOnUse" color-interpolation-filters="sRGB">
<feFlood flood-opacity="0" result="BackgroundImageFix"/>
<feColorMatrix in="SourceAlpha" type="matrix" values="0 0 0 0 0 0 0 0 0 0 0 0 0 0 0 0 0 0 127 0" result="hardAlpha"/>
<feOffset dx="4" dy="4"/>
<feGaussianBlur stdDeviation="2"/>
<feComposite in2="hardAlpha" operator="out"/>
<feColorMatrix type="matrix" values="0 0 0 0 0 0 0 0 0 0 0 0 0 0 0 0 0 0 0.25 0"/>
<feBlend mode="normal" in2="BackgroundImageFix" result="effect1_dropShadow_209_72"/>
<feBlend mode="normal" in="SourceGraphic" in2="effect1_dropShadow_209_72" result="shape"/>
</filter>
<filter id="filter1_d_209_72" x="258" y="22" width="41" height="41" filterUnits="userSpaceOnUse" color-interpolation-filters="sRGB">
<feFlood flood-opacity="0" result="BackgroundImageFix"/>
<feColorMatrix in="SourceAlpha" type="matrix" values="0 0 0 0 0 0 0 0 0 0 0 0 0 0 0 0 0 0 127 0" result="hardAlpha"/>
<feOffset dx="4" dy="4"/>
<feGaussianBlur stdDeviation="2"/>
<feComposite in2="hardAlpha" operator="out"/>
<feColorMatrix type="matrix" values="0 0 0 0 0 0 0 0 0 0 0 0 0 0 0 0 0 0 0.25 0"/>
<feBlend mode="normal" in2="BackgroundImageFix" result="effect1_dropShadow_209_72"/>
<feBlend mode="normal" in="SourceGraphic" in2="effect1_dropShadow_209_72" result="shape"/>
</filter>
<clipPath id="clip0_209_72">
<rect width="40" height="40" fill="white" transform="translate(66 53)"/>
</clipPath>
</defs>
</svg>
