<svg width="128" height="128" viewBox="0 0 128 128" fill="none" xmlns="http://www.w3.org/2000/svg">
<g clip-path="url(#clip0_4_9)">
<rect width="128" height="128" fill="white"/>
<path d="M0 84C0 84 5.44793 62.9628 15 54C29.914 40.0061 48.0635 53.3517 66.5 44.5C81.182 37.4509 83.3663 16.774 99.5 19C112.369 20.7755 116.469 30.9153 124 41.5C143.604 69.054 128 128 128 128H0V84Z" fill="#D9D9D9"/>
<rect x="14" y="15" width="99" height="99" rx="5" stroke="black" stroke-width="2" stroke-linecap="round" stroke-linejoin="round" stroke-dasharray="8 40"/>
<g filter="url(#filter0_d_4_9)">
<circle cx="110" cy="111" r="10" fill="#FF0000"/>
<circle cx="110" cy="111" r="9.5" stroke="#FF0000"/>
</g>
<path d="M95.8259 37.7593C95.4676 37.6702 95.1074 37.5811 94.8306 37.4939L86.2368 34.6615C83.1769 33.6472 80.1151 32.6329 77.042 31.6528C75.9898 31.3153 74.9395 30.9855 73.8873 30.6575C72.8162 30.3238 71.7431 29.9883 70.6644 29.6413C69.9838 29.4271 69.3032 29.1901 68.6188 28.9531C67.2557 28.4811 65.8452 27.9938 64.41 27.6678C62.5426 27.2488 60.5672 27.9237 58.8211 28.519C58.3168 28.6896 57.8296 28.8583 57.3689 28.9873C56.4115 29.2546 55.4522 29.5276 54.4929 29.8025C53.4028 30.1153 52.3089 30.4281 51.2056 30.7314C49.8273 31.1201 48.4414 31.4803 47.0556 31.8386C44.6801 32.4547 42.225 33.0936 39.8362 33.869C37.6522 34.5686 35.7943 35.2985 34.1525 36.1023L33.8795 36.235C32.998 36.6654 31.997 37.1526 31.1211 37.8048L29.7883 38.7982L31.3221 39.439C33.2842 40.2599 35.2995 40.9974 37.2484 41.7121C40.5206 42.9103 43.9047 44.1482 47.0423 45.7938C48.1893 46.3929 49.3002 47.1285 50.3733 47.8413C52.0132 48.9276 53.71 50.0519 55.6608 50.7893C56.3622 51.0529 57.0751 51.2974 57.7879 51.5401C59.6477 52.1752 61.4051 52.7762 62.9957 53.7298L63.5095 54.0369L64.0081 53.7051C66.5561 52.0065 69.2653 50.4595 72.0597 49.1077C73.7527 48.302 75.5177 47.574 77.224 46.8688C78.2819 46.4327 79.3397 45.9967 80.3919 45.5379L82.4091 44.6544C86.7467 42.7491 91.2323 40.7774 95.8354 39.5963L98.1255 38.7091L95.8259 37.7593Z" fill="#71C598"/>
<path d="M63.5189 54.5848C63.5189 54.2511 63.3445 53.944 63.0582 53.7715C61.3671 52.7572 59.5244 52.1297 57.7423 51.523C56.8152 51.2064 55.8882 50.8917 54.9896 50.5239C53.3914 49.8604 51.9657 48.9106 50.4547 47.9077C49.3438 47.1702 48.1949 46.4062 46.9702 45.7635C43.6942 44.0553 40.2267 42.7794 36.873 41.5452C34.8444 40.7983 32.7476 40.0267 30.7305 39.1717C30.285 38.9821 29.7617 39.1641 29.5285 39.5925C28.9427 40.6656 28.5787 41.9604 28.4138 43.5491C28.3834 43.8335 28.4839 44.116 28.6868 44.317C28.8896 44.5179 29.174 44.6184 29.4565 44.59C29.8774 44.5482 30.4537 44.7189 30.9694 44.8705L31.5362 45.0298C32.1599 45.1928 32.8045 45.3635 33.2595 45.6838L33.1818 46.0592C33.0017 46.9218 32.7325 48.2243 32.7685 49.2006C32.778 49.4812 32.9145 49.7447 33.1363 49.9153C33.3581 50.086 33.6482 50.1504 33.9212 50.0898C34.2036 50.0272 34.4804 50.0405 35.0094 50.2718C35.3374 50.4234 35.7886 50.7343 35.9023 51.6917C35.9364 52.0046 35.9175 52.3515 35.9023 52.7003C35.8758 53.3468 35.8454 54.0805 36.0578 54.7459C36.3971 55.7886 37.4777 56.3517 38.8276 56.1697C39.2864 56.109 39.6333 55.728 39.6504 55.2654C39.7072 53.7734 39.7831 52.3193 40.0201 50.9732C40.2514 51.0491 40.5187 51.1154 40.7992 51.1856C41.4457 51.3448 42.3292 51.5628 42.4297 51.9249C42.496 52.1752 42.479 52.4444 42.4012 52.9771C42.35 53.2027 42.2723 53.5421 42.3823 53.908C42.515 54.3592 42.9472 54.7232 43.4193 54.6568C43.6278 54.6265 43.8117 54.545 43.9501 54.4217C44.2383 54.509 44.735 54.9658 44.9473 55.4303C45.1445 55.8645 45.1483 56.219 44.9682 56.7783C44.8791 57.0513 44.9208 57.3508 45.0781 57.5897C45.2355 57.8305 45.4952 57.9859 45.7815 58.0125L46.9759 58.1262C47.3323 58.1679 47.6887 57.9859 47.8764 57.675L48.2499 57.0702C48.5153 56.6418 48.7826 56.2133 48.976 55.7792C50.8074 55.8569 51.414 57.0342 51.2927 60.2761C51.2756 60.7121 51.56 61.1027 51.979 61.2221C52.1875 61.2828 52.3923 61.3472 52.597 61.4136C52.9231 61.5178 53.2492 61.6202 53.5828 61.7036C53.8293 61.7662 54.0966 61.7245 54.3146 61.588C54.5327 61.4515 54.6862 61.2316 54.7412 60.9813C54.9061 60.204 54.9649 59.44 55.0199 58.6987L55.0862 57.8665C55.1355 57.1953 55.1905 56.8825 55.3611 56.8105C56.2219 56.4617 57.7594 56.9697 58.4096 57.62C58.7907 58.0068 58.7376 58.549 58.6125 59.476C58.5101 60.2401 58.3926 61.1046 58.713 61.9634C59.276 63.4118 60.8098 63.6488 61.8733 63.6488C62.2184 63.6488 62.5141 63.6241 62.7094 63.6071C63.2061 63.5653 63.5834 63.1464 63.5777 62.6497C63.5379 59.9595 63.5189 57.2731 63.5189 54.5848Z" fill="#71C598"/>
<path d="M98.4118 44.4838C98.3435 43.4695 98.2791 42.5121 98.3056 41.568C98.3113 41.422 98.336 41.2628 98.3587 41.0959C98.4004 40.7945 98.4402 40.4779 98.4402 40.1746C98.4402 39.8883 98.3094 39.6153 98.0857 39.4352C97.862 39.2551 97.5644 39.183 97.2895 39.2475C92.1537 40.3736 87.2852 42.5026 82.5759 44.5634L80.244 45.5777C79.3378 45.9682 78.4259 46.3455 77.5121 46.7228C75.6978 47.4735 73.8228 48.2489 72.018 49.1191C69.2899 50.4272 66.5694 51.9875 63.9361 53.7563C63.6744 53.9326 63.5171 54.2284 63.5171 54.5431C63.5171 57.0247 63.5531 59.5045 63.5891 61.9691L63.5929 62.2724C63.5967 62.5776 63.7484 62.8601 63.9967 63.0345C64.2451 63.207 64.5636 63.2525 64.8518 63.1521C65.2745 63.0061 65.703 62.8753 66.1314 62.7426C67.0945 62.4449 68.0917 62.1397 69.0908 61.5709C69.197 62.0999 69.2671 62.644 69.3013 63.19C69.324 63.5293 69.525 63.8289 69.8283 63.9805C69.961 64.045 70.1051 64.0772 70.2473 64.0772C70.4331 64.0772 70.617 64.0222 70.7762 63.9161C71.7298 63.2734 72.6133 62.5435 73.5119 61.7871C75.0608 60.4827 74.6039 58.9623 74.2703 57.8513C74.2001 57.6162 74.1262 57.3773 74.0712 57.1385C73.9328 56.5261 74.0901 55.9915 74.547 55.5024C75.3262 54.672 76.8751 54.1772 77.9103 54.2871C77.9235 54.3042 77.9558 54.3725 77.9652 54.4161C78.0202 55.0322 78.0183 55.6294 78.0183 56.2285C78.0183 56.5716 78.2041 56.8863 78.5018 57.0551C78.8013 57.2219 79.1672 57.2162 79.4591 57.038C80.0241 56.6929 80.5265 56.4275 80.9929 56.2247C81.3322 56.0768 81.554 55.7469 81.5635 55.3772C81.5825 54.5753 81.9408 53.8056 82.5759 53.2141C83.3285 52.5126 84.3959 52.124 85.4879 52.1714C85.4879 52.7781 85.4557 53.3847 85.4253 53.9914L85.3931 54.6322C85.3779 54.9772 85.5505 55.3033 85.8443 55.4834C86.1382 55.6635 86.5098 55.6711 86.8074 55.5005C87.7894 54.9469 88.6729 53.9554 89.1715 52.8577C89.672 51.7903 89.5677 50.7381 89.4748 49.813C89.4161 49.2158 89.3592 48.6508 89.4673 48.1465C89.5981 47.5474 90.1289 46.9654 90.8512 46.628C91.5773 46.2886 92.3679 46.2564 92.8817 46.4744C92.8418 47.265 92.8627 48.0347 92.9006 48.8233C92.9177 49.1703 93.1224 49.4793 93.4352 49.631C93.7462 49.7807 94.1177 49.7504 94.3983 49.5495C95.0922 49.0546 95.7027 48.4233 96.2942 47.8148C96.7928 47.301 97.2629 46.8157 97.7312 46.4801C98.1824 46.3796 98.499 45.9663 98.4725 45.4999L98.4118 44.4838Z" fill="#2B8C5E"/>
<path d="M63.6972 69.9354L63.6005 63.571L62.626 63.6109C60.5501 63.6924 59.3292 63.2279 58.7984 62.1359C58.4647 61.442 58.5424 60.477 58.6182 59.5424L58.6694 58.8694C58.7263 58.0769 58.5822 57.565 57.6627 57.1404C57.5262 57.0759 56.8115 56.7555 56.1764 56.6949L55.2702 56.6076L55.147 57.5101C55.0806 57.9916 55.037 58.475 54.9953 58.9585C54.9062 59.9746 54.8228 60.932 54.6199 61.8951C54.1441 61.8307 53.6663 61.6714 53.1601 61.5046C52.6047 61.3207 52.0302 61.1292 51.4122 61.0439C51.3439 61.0325 51.2946 61.0136 51.27 61.0268L51.3041 60.5055C51.38 59.4343 51.4728 58.1016 51.0235 56.9887C50.7638 56.3764 50.3164 56.001 49.6908 55.8778L49.0329 55.7469L48.2461 57.0551C48.0148 57.4323 47.7836 57.8115 47.6603 58.1945L44.5095 57.9878L44.6384 57.6996C44.9152 57.1063 45.3303 56.2076 44.9682 55.3905C44.8336 55.0853 44.536 54.6796 43.8914 54.4805C43.4971 54.3573 43.1558 54.3687 42.9056 54.3781C42.6345 54.3876 42.6269 54.3838 42.5567 54.327C42.3672 54.1734 42.3349 54.0767 42.4183 53.398C42.4563 53.0947 42.498 52.7515 42.4657 52.3837L42.2686 51.7107L41.6733 51.5154C41.5121 51.4624 41.3453 51.4093 41.188 51.3429L40.0675 50.8728L39.8855 52.0747C39.6883 53.3734 39.6485 54.6644 39.4912 56.0256C38.5357 56.4238 36.9659 56.2228 36.3043 55.3583C35.9232 54.8597 35.9365 54.0615 35.9498 53.2179C35.9573 52.7136 35.963 52.2169 35.9024 51.7429C35.8208 51.1628 35.5877 50.7249 35.2104 50.4424C34.6284 50.0083 33.9478 50.1049 33.4511 50.1789C33.2823 50.2016 32.998 50.2452 32.9126 50.1239C32.5714 49.0016 32.9297 47.2858 33.1231 46.3645L33.2861 45.5872L32.5467 45.2914C32.2055 45.1549 30.4348 44.4724 29.2745 44.5975H28.3266V45.5417C28.3266 46.2981 28.3645 47.0375 28.4043 47.7617L28.5067 49.3106C28.5731 50.2813 28.6375 51.2481 28.6887 52.2359C28.8916 55.4398 29.102 58.7537 28.8973 62.0051C28.7759 63.7303 28.6205 65.4536 28.4631 67.1788C28.2299 69.7515 27.9873 72.4132 27.8716 75.056C27.7825 77.3045 27.7256 79.5719 27.7067 81.8279C27.7067 82.1388 27.6858 82.4782 27.6669 82.8289C27.6176 83.6745 27.5626 84.6338 27.7503 85.4793C28.0934 86.905 29.5703 87.1628 30.4537 87.3145C30.6301 87.3448 30.8007 87.3732 30.9486 87.4093C34.6549 88.3268 38.5186 89.616 43.1103 91.4644C46.902 92.9773 50.6046 94.475 54.2332 96.1661C55.7309 96.8543 56.9821 97.5823 58.0571 98.3918C58.7339 98.9056 59.3766 99.4364 59.9965 100.003C60.0932 100.092 60.1899 100.191 60.2885 100.291C60.7226 100.735 61.2648 101.289 62.0251 101.44C62.1748 101.478 62.3 101.478 62.2696 101.457L63.354 101.727L63.4412 100.612C63.6725 97.6487 63.7578 94.731 63.8052 92.5204C63.9417 84.9788 63.8166 77.3291 63.6972 69.9354Z" fill="#A37B57"/>
<path d="M98.6981 60.0846C98.6071 57.1309 98.5161 54.1791 98.4972 51.2292L98.5161 47.8167C98.5161 47.4451 98.2981 47.1057 97.9606 46.9522C97.6194 46.7986 97.2232 46.8574 96.9445 47.1038C96.5653 47.4375 96.1975 47.8015 95.8297 48.1674C94.8951 49.0983 94.0135 49.9779 92.9234 50.3362C92.9481 49.7106 92.9291 49.0831 92.9101 48.4613C92.8988 48.0726 92.8855 47.6878 92.8855 47.3048C92.8855 47.0356 92.7717 46.7816 92.5727 46.6014C92.3736 46.4213 92.1101 46.336 91.8409 46.3626C91.221 46.427 90.6219 46.7417 90.3147 46.9787C89.3365 47.6934 89.3934 48.6717 89.437 49.4092L89.4768 49.9969C89.5507 51.0112 89.6095 51.8131 89.2588 52.6548C88.5118 54.4805 86.9307 55.7849 85.3401 55.9726C85.3401 55.3829 85.3742 54.7933 85.4064 54.2056L85.4538 53.2824C85.4671 52.9828 85.3363 52.6947 85.1031 52.5051C84.8699 52.3174 84.5628 52.2529 84.2708 52.3231C82.3447 52.8198 81.2508 54.3156 81.6356 56.0199C80.627 56.2797 79.8213 56.7953 79.044 57.2939C78.7312 57.493 78.4203 57.6921 78.0752 57.785C78.0165 57.239 78.0222 56.7024 78.026 56.1621C78.0278 55.8664 78.0297 55.5706 78.0241 55.2711C78.0184 54.9962 77.8951 54.7403 77.6828 54.5639C77.4724 54.3876 77.1975 54.3118 76.9264 54.3554C75.4306 54.5924 73.9139 55.5801 74.0447 56.9205C74.0845 57.421 74.2495 57.857 74.3954 58.2419C74.5054 58.5319 74.6097 58.8049 74.6381 59.0722C74.676 59.3661 74.6552 59.6884 74.5717 60.0694C74.367 61.0837 73.7452 61.5709 72.7062 62.3881C72.437 62.5947 72.1716 62.807 71.9062 63.0194C71.0588 63.6962 70.2568 64.337 69.2994 64.8697C69.3392 64.2517 69.326 63.6071 69.2596 62.9018C69.2312 62.6099 69.07 62.3463 68.8236 62.189C68.5771 62.0316 68.27 61.9975 67.9932 62.0999C67.5268 62.2686 67.0548 62.4184 66.5846 62.5701C65.794 62.8222 64.9788 63.0838 64.1826 63.4308C63.8337 63.5843 63.61 63.9313 63.6157 64.3123L63.6935 69.3628C63.7712 74.3299 63.8489 79.297 63.8622 84.2603C63.8622 89.5459 63.8622 95.0097 63.447 100.339C63.4242 100.629 63.5361 100.913 63.7522 101.11C63.9285 101.272 64.1579 101.359 64.393 101.359C64.4442 101.359 64.4973 101.355 64.5485 101.346C65.0433 101.264 65.5267 101.141 65.9495 101.033L66.1922 100.972C67.4965 100.654 68.6586 100.037 69.7829 99.4402C70.1734 99.2336 70.5621 99.0269 70.9564 98.8354C74.4883 97.0951 78.0335 95.4154 81.5693 93.7432L82.7333 93.1915C86.4852 91.4246 90.51 89.5061 94.6107 87.396C95.4013 87.0017 96.2961 86.5561 96.9994 85.83C97.8943 84.9124 98.137 83.756 98.2659 82.6488C98.5427 80.4136 98.6792 78.114 98.7834 76.1366V76.1309C99.0261 70.7563 98.8593 65.3304 98.6981 60.0846Z" fill="#843333"/>
<path d="M99.5209 55.7223C99.4261 51.76 99.5398 47.8167 99.3313 43.8544C99.2744 43.115 99.2365 42.3946 99.2554 41.6552C99.2744 40.9537 99.4829 40.2523 99.4261 39.5508C99.2175 37.6171 97.1511 37.2569 95.6154 36.764C86.7998 33.8633 77.9842 30.9817 69.1306 28.1758C67.1779 27.5502 64.9788 26.4506 62.8934 26.5833C60.6752 26.735 58.3813 27.7208 56.239 28.3085C51.9923 29.484 47.7456 30.6404 43.499 31.7969C39.4798 32.8965 35.4796 34.1856 31.8396 36.2521C30.4746 37.0294 29.3181 37.8256 28.6167 39.2665C27.9342 40.6315 27.6688 42.1481 27.5171 43.6648C27.3844 45.0108 27.3844 46.3569 27.4602 47.7029C27.6877 51.2102 27.9532 54.7175 28.01 58.2248C28.0859 62.3198 27.4792 66.3579 27.1948 70.434C26.8536 75.2683 26.5313 80.2165 26.7777 85.0508C26.8915 87.1742 28.1617 87.724 30.0196 88.16C32.2757 88.6908 34.4938 89.3544 36.674 90.0748C41.2619 91.6294 45.7171 93.5252 50.1723 95.421C53.5279 96.8429 56.7319 98.2458 59.424 100.767C60.5615 101.829 61.4146 102.492 63.0071 102.417C64.3911 102.341 65.8319 102.113 67.14 101.696C68.9411 101.127 70.6284 100.028 72.3157 99.2127C74.3821 98.189 76.4486 97.2031 78.534 96.2173C82.7996 94.1887 87.0842 92.1981 91.3119 90.1127C93.1698 89.1837 95.2363 88.3685 96.9236 87.1362C98.4213 86.0177 98.9711 84.52 99.1986 82.719C100.298 73.7517 99.7484 64.7085 99.5209 55.7223ZM97.4923 40.1765C97.4923 40.6315 97.3786 41.1244 97.3596 41.5225C97.3217 42.8685 97.4544 44.2146 97.5302 45.5606C97.4165 45.5796 97.3027 45.6365 97.17 45.7123C96.0704 46.5275 95.0467 47.9304 93.8523 48.7835C93.8144 48.0252 93.7954 47.2858 93.8334 46.5275C93.8334 46.2242 93.6438 45.864 93.3594 45.7123C91.6342 44.8023 88.9611 46.0346 88.544 47.9494C88.2217 49.466 88.999 51.0017 88.3165 52.4615C87.9373 53.2956 87.2169 54.1867 86.3448 54.6796C86.3827 53.8454 86.4396 53.0112 86.4396 52.1771C86.4396 51.6462 86.0036 51.2481 85.4917 51.2292C83.0271 51.1154 80.6763 52.9165 80.6194 55.3621C80.0506 55.6085 79.5009 55.9119 78.97 56.2342C78.97 55.6085 78.97 54.9829 78.9132 54.3383C78.8563 53.9592 78.6477 53.5042 78.2117 53.4283C75.9367 53.0681 72.5432 54.6606 73.1498 57.3527C73.4721 58.7367 74.2304 59.95 72.9034 61.0685C72.0692 61.77 71.1782 62.5094 70.2492 63.135C70.2113 62.5473 70.1354 61.9596 70.0217 61.3908C69.87 60.7652 69.1307 60.5756 68.6188 60.8221C67.3296 61.4667 65.9077 61.789 64.5427 62.2629C64.5048 59.7035 64.4669 57.1252 64.4669 54.5469C67.0073 52.8406 69.6615 51.305 72.4294 49.9779C75.1025 48.6887 77.8894 47.6271 80.6194 46.4517C86.1173 44.0819 91.6152 41.4656 97.4923 40.1765ZM30.3609 40.0437C35.7261 42.3187 41.3377 43.8923 46.5323 46.6033C49.3192 48.0631 51.7079 50.1865 54.6275 51.3998C57.2627 52.4804 60.1065 53.106 62.5711 54.5848C62.5711 57.2769 62.59 59.969 62.6279 62.661C61.5094 62.7558 60.0307 62.7369 59.5946 61.6183C59.0448 60.1396 60.334 58.2248 59.0827 56.9546C58.1727 56.0446 56.239 55.4379 55.0067 55.9308C54.1536 56.291 54.1915 57.2769 54.1156 58.0921C54.0398 59.0021 54.0019 59.8931 53.8123 60.7842C53.2815 60.6515 52.7696 60.4619 52.2388 60.3102C52.3336 57.7887 52.125 54.964 49.0159 54.8312C48.6936 54.8123 48.3523 55.0208 48.2007 55.3052C47.8404 55.9498 47.4423 56.5565 47.0632 57.1821C46.665 57.1442 46.2669 57.1062 45.8688 57.0683C46.0773 56.4237 46.1532 55.7981 45.8119 55.0398C45.4896 54.3383 44.5227 53.2767 43.6127 53.4852C43.499 53.4852 43.4042 53.5042 43.3094 53.5042C43.3094 53.561 43.2904 53.599 43.2904 53.6369C43.2336 53.4473 43.3473 53.1629 43.3663 52.9733C43.4232 52.5373 43.4611 52.1202 43.3473 51.6842C43.025 50.5277 41.2998 50.395 40.314 50.0727C39.859 49.921 39.2523 50.2433 39.1575 50.7362C38.8352 52.215 38.7594 53.7317 38.7025 55.2294C37.9821 55.3242 37.1859 55.1535 36.9584 54.4521C36.6929 53.6179 36.9394 52.4804 36.8446 51.5894C36.7309 50.6225 36.3138 49.8262 35.4038 49.4092C34.7213 49.1058 34.2284 49.049 33.7165 49.1627C33.6786 48.139 34.0577 46.5465 34.1904 45.864C34.2663 45.4658 34.1525 44.9729 33.7544 44.7833C33.0909 44.4421 32.3136 44.2525 31.5932 44.0629C30.9107 43.8733 30.0765 43.57 29.3561 43.6458C29.4888 42.3756 29.7731 41.1244 30.3609 40.0437ZM62.8554 92.5015C62.7986 95.1746 62.7038 97.8667 62.4952 100.54C62.4194 100.521 62.3246 100.54 62.2488 100.521C61.5852 100.388 61.1113 99.7435 60.6373 99.3075C59.9927 98.7198 59.3292 98.17 58.6277 97.6392C57.3954 96.7102 56.0304 95.9519 54.6275 95.3073C50.9686 93.601 47.2148 92.0844 43.4611 90.5867C39.4609 88.9752 35.3848 87.5344 31.1761 86.4917C30.3229 86.2831 28.92 86.2831 28.6736 85.2594C28.4461 84.2356 28.6546 82.8706 28.6546 81.8279C28.6736 79.5908 28.7304 77.3348 28.8252 75.0977C29.0148 70.7373 29.5457 66.4148 29.849 62.0733C30.0575 58.7746 29.849 55.4569 29.6404 52.1771C29.5646 50.6794 29.4509 49.2006 29.3561 47.7029C29.3181 47.0015 29.2802 46.281 29.2802 45.5417H29.3561C30.0954 45.4658 31.3467 45.826 32.1998 46.1673C31.9154 47.5323 31.6311 49.1437 32.0102 50.395C32.56 52.215 34.7023 49.9969 34.9677 51.8737C35.1384 53.1819 34.7023 54.8123 35.5554 55.9308C36.4844 57.1442 38.494 57.4665 39.859 56.8977C40.2761 56.7271 40.5415 56.4427 40.5604 55.9687C40.5984 54.7365 40.6363 53.4662 40.8259 52.215C41.0534 52.3098 41.2998 52.3856 41.5273 52.4615C41.6032 53.3525 41.0534 54.3194 41.9634 55.0587C42.5511 55.5327 43.0061 55.1915 43.6127 55.381C44.7123 55.7223 43.8782 57.0114 43.6317 57.6371C43.3852 58.2437 44.0109 58.7746 44.5417 58.8315C45.5654 58.9262 46.5702 59.04 47.575 59.1348C47.8973 59.1727 48.2575 58.9452 48.3902 58.6608C48.7504 58.0352 49.1486 57.4096 49.5088 56.8029C49.7932 56.8598 50.0017 56.9925 50.1534 57.3527C50.5894 58.4333 50.3809 59.9121 50.324 61.0306C50.2861 61.5804 50.779 61.9027 51.2719 61.9785C52.3715 62.1302 53.3763 62.68 54.4948 62.8317C54.9119 62.8885 55.2911 62.4904 55.4048 62.1302C55.9167 60.6894 55.8788 59.1537 56.0873 57.6371C56.4854 57.675 57.0163 57.8835 57.2627 57.9973C57.7936 58.2437 57.7557 58.3385 57.7177 58.8883C57.6419 60.0827 57.4144 61.4477 57.9452 62.5473C58.8173 64.3483 60.8459 64.6327 62.6659 64.5569C62.7986 73.8654 63.0261 83.174 62.8554 92.5015ZM55.9925 49.9021C52.8834 48.7267 50.4188 46.4896 47.4802 44.954C42.4184 42.2998 36.9394 40.7642 31.6879 38.565C32.579 37.9015 33.6407 37.4085 34.5696 36.9535C36.3517 36.0815 38.2286 35.38 40.1244 34.7733C43.8592 33.56 47.6888 32.7069 51.4615 31.6452C53.5279 31.0765 55.5754 30.4698 57.6229 29.901C59.6325 29.3323 62.0971 28.119 64.2015 28.5929C66.2869 29.0669 68.3344 29.901 70.3819 30.5456C72.5052 31.2281 74.6286 31.8727 76.7519 32.5552C80.7332 33.8254 84.6954 35.1525 88.6577 36.4606C90.6104 37.1052 92.5632 37.7498 94.5348 38.3944C94.8382 38.4892 95.2173 38.584 95.5965 38.6787C90.2123 40.0627 85.1125 42.4515 80.0127 44.6696C77.2259 45.8829 74.4011 46.9446 71.6521 48.2527C68.8273 49.6177 66.0973 51.1723 63.4811 52.9165C61.1681 51.5325 58.514 50.85 55.9925 49.9021ZM97.8336 76.0835C97.7198 78.2258 97.5871 80.3871 97.3217 82.5294C97.2079 83.4962 97.0184 84.4442 96.3169 85.1646C95.6913 85.8092 94.8571 86.2073 94.0609 86.6054C90.1934 88.596 86.269 90.4729 82.3257 92.3308C78.4013 94.1887 74.4579 96.0467 70.5336 97.9804C69.0548 98.7008 67.595 99.6487 65.9646 100.047C65.5096 100.161 64.9598 100.312 64.3911 100.407C64.8081 95.0419 64.8082 89.6387 64.8082 84.2546C64.7892 77.6002 64.6565 70.9458 64.5617 64.2915C65.775 63.7606 67.0642 63.4383 68.3154 62.9833C68.3723 63.59 68.3913 64.1967 68.3534 64.8033C68.2965 65.5617 69.1686 65.9029 69.7752 65.6185C71.0644 64.9929 72.145 64.0071 73.2825 63.135C74.3442 62.3008 75.2163 61.6562 75.5006 60.2533C75.5954 59.8173 75.6334 59.3812 75.5765 58.9452C75.5007 58.2058 75.0457 57.5612 74.9888 56.8408C74.9129 56.0635 76.1263 55.4379 77.0742 55.2862C77.0932 56.1583 77.0363 57.0115 77.1311 57.8835C77.2069 58.585 77.8704 59.0779 78.5529 58.6987C79.6525 58.0921 80.6194 57.2579 81.8706 56.9356C82.3825 56.8029 82.629 56.2531 82.5342 55.7602C82.2498 54.4521 83.3304 53.5421 84.5059 53.2387C84.4679 54.1487 84.3921 55.0587 84.3921 55.9687C84.3921 56.4427 84.8282 56.9925 85.34 56.9167C87.5202 56.6702 89.3213 55.0019 90.1365 53.0112C90.6484 51.779 90.4588 50.6415 90.3829 49.3523C90.345 48.6887 90.3071 48.1579 90.8759 47.7408C91.1223 47.5512 91.5584 47.3427 91.9375 47.3048C91.9375 48.2906 92.0134 49.2954 91.9754 50.3002C91.9375 50.9069 92.6011 51.3808 93.1698 51.2102C94.9898 50.6794 96.1842 49.03 97.5682 47.8167C97.5682 48.9542 97.5492 50.0917 97.5492 51.2292C97.6061 59.514 98.2127 67.7798 97.8336 76.0835Z" fill="black"/>
<path d="M50.6955 38.0076C50.7657 37.9716 50.8965 37.9431 50.7467 37.9792C50.7391 37.9811 50.7315 37.9867 50.7221 37.9905C50.832 37.9394 50.6993 37.9905 50.6424 37.9924C50.5931 37.9943 50.5457 37.9962 50.4965 37.9943C50.3713 37.9943 50.2443 37.9867 50.1192 37.9773C50.0699 37.9735 50.0206 37.9678 49.9713 37.964C49.9599 37.9621 49.9277 37.9583 49.8974 37.9545C49.8519 37.945 49.74 37.9261 49.7059 37.9242C49.7324 37.9394 49.759 37.9545 49.7836 37.9697C49.6926 37.9299 49.5997 37.892 49.5087 37.854C49.4443 37.8275 49.3779 37.7991 49.3135 37.7725C49.0025 37.6455 48.6897 37.5242 48.375 37.4104C48.157 37.3308 47.9371 37.2588 47.7153 37.1867C47.9693 37.0824 48.2158 36.9763 48.4926 36.872C49.3646 36.544 50.2538 36.2634 51.1562 36.0246C51.6358 35.8975 51.9752 35.3421 51.8178 34.8586C51.6586 34.3657 51.1657 34.0605 50.6519 34.197C48.8547 34.6728 47.1162 35.344 45.4441 36.1535C45.1957 36.2066 44.9682 36.3544 44.8071 36.5857C44.7938 36.6047 44.7805 36.6236 44.7672 36.6407C44.536 36.9687 44.6251 37.5242 44.9151 37.7896C44.9265 37.7991 44.9398 37.7972 44.9511 37.8066C44.9947 37.8692 45.008 37.9412 45.0668 38C45.2715 38.2048 45.5313 38.3621 45.7929 38.4854C46.3673 38.7565 46.974 38.9252 47.5731 39.1356C47.939 39.2645 48.303 39.401 48.6632 39.5451C48.9115 39.6437 48.9589 39.7006 49.2035 39.7575C49.3836 39.7992 49.5789 39.8162 49.7609 39.839C50.3998 39.9224 51.0633 39.947 51.6548 39.6494C52.0984 39.4257 52.2596 38.764 51.9942 38.3526C51.7003 37.8939 51.1714 37.7687 50.6955 38.0076Z" fill="black"/>
<path d="M64.3142 47.1596C64.2376 47.0755 64.2245 47.0718 64.245 47.0961C64.2675 47.1148 64.288 47.1334 64.3067 47.154C64.3067 47.154 64.3105 47.1578 64.3142 47.1596Z" fill="black"/>
<path d="M65.6537 43.9757C65.5816 44.0383 65.5077 44.0989 65.4356 44.1615C65.4318 44.1653 65.4337 44.1634 65.4337 44.1634C65.411 44.1805 65.3882 44.1975 65.3655 44.2127C65.2271 44.3094 65.0849 44.4004 64.9389 44.4838C64.8005 44.5615 64.6564 44.6336 64.5105 44.6999C64.5067 44.7018 64.4953 44.7075 64.4839 44.7113C64.4688 44.717 64.4536 44.7227 64.4479 44.7265C64.3759 44.7549 64.3019 44.7833 64.228 44.8118C63.5152 45.0772 62.7966 45.3066 62.099 45.6118C61.8354 45.7275 61.6819 46.0384 61.6459 46.3038C61.6023 46.6261 61.7141 46.8517 61.9075 47.1C61.7103 46.8479 61.9397 47.155 61.989 47.229C62.0497 47.32 62.1084 47.4129 62.1691 47.5057C62.317 47.7351 62.4724 47.957 62.645 48.1674C63.0431 48.6527 63.5739 48.9561 64.154 49.1722C64.6204 49.3447 65.2138 48.9788 65.32 48.5105C65.4432 47.9721 65.1569 47.5304 64.6583 47.3446C64.6413 47.3389 64.6242 47.3313 64.6072 47.3256C64.5617 47.3029 64.5124 47.2801 64.4688 47.2536C64.4176 47.2252 64.3645 47.1929 64.3152 47.1607C64.3228 47.1702 64.3247 47.1702 64.3342 47.1816C64.3266 47.1721 64.3152 47.1645 64.3057 47.155C64.2773 47.1361 64.2564 47.1133 64.2432 47.0962C64.2014 47.0602 64.1597 47.0242 64.1237 46.9844C64.0934 46.9522 64.0631 46.918 64.0346 46.8839C64.319 46.7872 64.6034 46.6924 64.8839 46.5825C65.6726 46.2735 66.3646 45.8791 66.9997 45.3161C67.3713 44.9862 67.3618 44.3075 66.9997 43.9757C66.5978 43.6098 66.0518 43.6231 65.6537 43.9757Z" fill="black"/>
<path d="M71.2805 35.9468C71.6711 35.6151 71.6218 34.9477 71.2805 34.6065C70.8938 34.2197 70.3326 34.2747 69.9402 34.6065C69.5894 34.9041 69.3354 35.1165 68.9657 35.361C68.8084 35.4634 68.6491 35.5582 68.4861 35.6435L68.4842 35.6454C68.4576 35.6264 68.4311 35.6075 68.4045 35.5866C68.5278 35.6814 68.3723 35.5582 68.3496 35.5392C68.1752 35.3895 68.0045 35.234 67.8396 35.0729C67.5078 34.7468 67.195 34.4017 66.8519 34.087C65.9646 33.2718 64.975 32.8282 63.7825 32.6803C63.2744 32.6178 62.8346 33.1619 62.8346 33.6282C62.8346 34.1913 63.2725 34.5117 63.7825 34.5743C63.6555 34.5591 63.9209 34.6008 63.9455 34.6065C64.0422 34.6254 64.137 34.6501 64.2318 34.6766C64.3209 34.7013 64.4081 34.7335 64.4972 34.7619C64.5389 34.7752 64.5446 34.7752 64.5579 34.779C64.5693 34.7866 64.5674 34.7866 64.5977 34.8018C64.7475 34.8795 64.8954 34.9553 65.0375 35.0482C65.0584 35.0634 65.0812 35.0767 65.102 35.0918C65.0205 35.1335 64.9428 35.1828 64.8612 35.2226C64.4479 35.4217 64.0195 35.5847 63.6157 35.7971C62.4308 36.4227 61.3672 37.2 60.3055 38.0095C59.9131 38.3091 59.6648 38.8399 59.9662 39.3063C60.2145 39.6949 60.8402 39.9698 61.2629 39.6475C62.3455 38.8209 63.4356 37.9981 64.6622 37.3896C65.121 37.1602 65.6006 36.9763 66.0575 36.7393C66.2187 36.6559 66.3855 36.5611 66.5485 36.4568C66.5845 36.4909 66.6187 36.5251 66.6547 36.5592C66.9391 36.8284 67.2424 37.0749 67.5609 37.3043C67.7372 37.4294 67.9306 37.5754 68.1429 37.6341C68.5031 37.7327 68.8065 37.5773 69.125 37.4351C69.9269 37.0768 70.6151 36.5099 71.2805 35.9468Z" fill="black"/>
<path d="M38.7195 65.92C38.7158 65.8991 38.6987 65.8119 38.6892 65.7702C38.6589 65.5446 38.6551 65.3133 38.6608 65.0877C38.6721 64.5645 38.7404 64.0412 38.7992 63.5217C38.8428 63.1407 38.475 62.68 38.1034 62.608C37.0702 62.4089 36.0919 62.007 35.0397 61.8951C34.471 61.8345 33.743 61.8269 33.4226 62.3918C33.2539 62.6895 33.2558 63.0554 33.2539 63.389C33.2482 64.2915 33.2103 65.1787 33.1041 66.0565C32.9752 67.1143 33.0188 68.1684 33.1363 69.2244C33.1932 69.7325 33.5325 70.1723 34.0842 70.1723C34.5525 70.1704 35.089 69.7344 35.0321 69.2225C34.9639 68.5969 34.9108 67.9713 34.9165 67.3418C34.9203 66.7162 35.0037 66.1133 35.072 65.501C35.1326 64.955 35.1516 64.4052 35.1516 63.8573C35.1516 63.8459 35.1516 63.8327 35.1516 63.8213C35.3848 63.8649 35.6161 63.918 35.8455 63.9786C36.1734 64.0677 36.4995 64.1606 36.8256 64.2497C36.746 65.1048 36.7251 65.9579 36.9943 66.7939C37.1517 67.2812 37.6522 67.5959 38.1603 67.4556C38.6399 67.3248 38.9793 66.7788 38.8219 66.2897C38.7821 66.1683 38.7461 66.0451 38.7195 65.92Z" fill="black"/>
<path d="M48.4108 83.9702C48.4072 83.9811 48.4054 83.9884 48.4036 84.0029C48.4054 83.9939 48.4072 83.9866 48.4108 83.9793C48.4108 83.9757 48.4108 83.9702 48.4108 83.9702Z" fill="black"/>
<path d="M50.1098 79.352C50.1041 78.9178 49.8179 78.569 49.414 78.4382C48.8131 78.2429 48.451 78.0438 47.7988 77.786C47.3722 77.6173 46.9191 77.5092 46.4584 77.4656C46.3978 76.9063 46.358 76.366 45.8442 76.0248C44.6309 75.2209 43.3038 73.873 41.7359 73.983C41.2563 74.0171 40.7444 74.3906 40.788 74.9309C40.915 76.4892 40.9567 78.0571 40.9757 79.6212C40.9947 81.1776 41.0174 82.7569 40.8411 84.3058C40.7823 84.8157 41.3188 85.2537 41.789 85.2537C42.3502 85.2556 42.6781 84.8195 42.7369 84.3077C42.9132 82.7588 42.8905 81.1795 42.8715 79.6231C42.8583 78.4818 42.8184 77.3405 42.7559 76.1992C42.9284 76.2997 43.1009 76.4096 43.264 76.5234C43.6905 76.8172 44.1038 77.1319 44.5342 77.422C44.6764 78.55 44.555 79.6496 44.5342 80.7871C44.5133 82.008 46.4091 82.008 46.43 80.7871C46.4395 80.3075 46.4698 79.8316 46.4983 79.3538C46.5362 79.3633 46.5722 79.3709 46.6101 79.3804C46.8755 79.4505 47.1315 79.5472 47.3874 79.6496C47.4196 79.6629 47.5277 79.7084 47.4367 79.6686C47.4974 79.6951 47.558 79.7216 47.6206 79.7463C47.7419 79.7975 47.8614 79.8506 47.9827 79.9017C48.0718 79.9397 48.1609 79.97 48.25 80.006C48.286 80.6373 48.3391 81.2667 48.3789 81.8981C48.4074 82.3587 48.432 82.8194 48.4339 83.282C48.4339 83.4868 48.432 83.6915 48.4168 83.8963C48.4149 83.9209 48.413 83.9456 48.4111 83.9702C48.4149 83.9588 48.4168 83.9456 48.4206 83.9399C48.4149 83.9456 48.413 83.9664 48.4093 83.9778C48.4093 83.9892 48.4074 83.9986 48.4074 84.01C48.3998 84.1389 48.396 84.0688 48.4036 84.0043C48.3922 84.0593 48.3846 84.1295 48.377 84.1598C48.2557 84.6394 48.5325 85.2101 49.0387 85.3257C49.5297 85.4376 50.0757 85.1779 50.2046 84.6641C50.4207 83.8034 50.3316 82.8536 50.2785 81.9796C50.2255 81.1037 50.1231 80.2278 50.1098 79.352Z" fill="black"/>
<path d="M59.0921 68.6557C58.8248 68.3827 58.3072 68.1552 57.9489 68.0471C57.8446 68.0149 57.7309 68.0092 57.6228 67.9807C57.5603 67.9637 57.4996 67.9409 57.437 67.922C57.4276 67.9182 57.3934 67.9049 57.3707 67.8973C57.1527 67.7987 56.9441 67.6793 56.728 67.5769C56.1574 67.3077 55.4654 67.084 54.8322 67.2546C54.034 67.467 53.8994 68.3485 53.7989 69.0519C53.7079 69.6832 53.6871 70.3126 53.7193 70.9496C53.7857 72.254 54.053 73.5564 53.9923 74.8664C53.9677 75.3783 54.4454 75.8143 54.9402 75.8143C55.4673 75.8143 55.8578 75.3802 55.8825 74.8664C55.9317 73.801 55.7554 72.7374 55.6625 71.6795C55.6132 71.124 55.581 70.5648 55.6 70.0074C55.6038 69.8804 55.6113 69.7533 55.6227 69.6263C55.6284 69.5581 55.636 69.4879 55.6436 69.4216C55.6474 69.4045 55.6493 69.3893 55.655 69.3457C55.6644 69.2908 55.6777 69.2377 55.6891 69.1827C55.6967 69.1846 55.7024 69.1865 55.7099 69.1884C55.7327 69.196 55.7346 69.196 55.746 69.1998C55.746 69.1998 55.7479 69.2036 55.7668 69.213C56.0929 69.3742 56.4133 69.5467 56.7526 69.6832C56.9024 69.7439 57.0541 69.7988 57.2133 69.833C57.2323 69.8368 57.3915 69.8823 57.4314 69.8747C57.5034 69.9107 57.5754 69.9448 57.6475 69.9789C57.674 70.0548 57.6968 70.1325 57.7176 70.2083C57.7366 70.2747 57.7536 70.3411 57.7707 70.4074C57.7688 70.4188 57.7669 70.4396 57.7631 70.4946C57.7574 70.5856 57.7612 70.6785 57.7593 70.7695C57.7347 71.4672 57.6171 72.1497 57.6342 72.8511C57.6456 73.363 58.0608 73.7991 58.5821 73.7991C59.0864 73.7991 59.5433 73.3649 59.53 72.8511C59.5054 71.8539 59.8353 70.7733 59.5717 69.797C59.4694 69.4159 59.3746 68.9457 59.0921 68.6557ZM57.6949 70.0017C57.7404 70.0245 57.7821 70.0529 57.8295 70.0737C58.0399 70.1723 57.8617 70.2368 57.6949 70.0017Z" fill="black"/>
<path d="M73.9176 73.9147C73.0474 73.8578 72.1735 74.0284 71.3222 74.1915C70.945 74.2635 70.562 74.3128 70.1847 74.3905C69.6444 74.5005 69.2747 74.9195 69.1762 75.4541C68.8425 77.2532 68.9126 79.1036 69.3676 80.8743C69.4909 81.3539 70.052 81.6914 70.5336 81.5359C71.0322 81.3805 71.3298 80.8895 71.1971 80.3738C71.0094 79.642 70.9165 79.0789 70.8767 78.368C70.8559 78.0059 70.854 77.6419 70.8672 77.2779C70.8748 77.0959 70.8862 76.9158 70.9014 76.7338C70.9108 76.6257 70.9222 76.5177 70.9336 76.4077C70.9374 76.3717 70.9431 76.3357 70.9469 76.2996C70.9393 76.3527 70.9412 76.347 70.9507 76.2826C70.9563 76.2484 70.962 76.2124 70.9677 76.1764H70.9696C71.3071 76.1214 71.6445 76.0551 71.9801 75.9906C72.363 75.9186 72.6853 75.8636 73.0095 75.8295C73.0152 76.2939 73.019 76.7565 73.0683 77.2191C73.1195 77.7101 73.4664 78.1917 74.0162 78.167C74.4845 78.1462 75.0191 77.7481 74.9641 77.2191C74.8807 76.4361 74.949 75.6456 74.8656 74.8626C74.8087 74.3261 74.475 73.9507 73.9176 73.9147Z" fill="black"/>
<path d="M88.8435 77.7955C87.8615 77.9642 86.8851 78.5216 86.0718 79.1832C86.0604 78.6638 86.0491 78.1424 86.0377 77.623C86.0244 77.0561 86.0604 76.4343 85.577 76.0437C85.1391 75.6892 84.5267 75.7271 84.0053 75.8428C83.0404 76.057 82.2517 76.7319 81.2867 76.9329C80.8715 77.0182 80.6042 77.4485 80.5909 77.8467C80.4658 81.3085 80.5151 84.7665 80.5928 88.2282C80.6194 89.4435 82.5152 89.4492 82.4868 88.2264C82.4128 84.994 82.3787 81.7654 82.4754 78.5349C82.8053 78.404 83.1295 78.2543 83.4442 78.0969C83.6755 77.9813 83.9106 77.8599 84.1532 77.7727C84.2006 78.8515 84.193 79.9397 84.2177 81.0127C84.248 82.4061 84.2802 83.7996 84.3106 85.1949C84.3371 86.4139 86.233 86.4177 86.2064 85.1949C86.178 83.955 86.1514 82.7152 86.123 81.4753C86.3126 81.4487 86.4965 81.3805 86.6443 81.2307C86.8358 81.0336 87.0425 80.8535 87.2529 80.679C87.27 80.6639 87.2719 80.662 87.2719 80.662C87.2813 80.6563 87.2832 80.6544 87.3003 80.6411C87.3591 80.5975 87.4197 80.5539 87.4785 80.5122C87.6131 80.4174 87.7496 80.3264 87.8899 80.2392C88.0169 80.1596 88.1496 80.0989 88.2804 80.0288C88.3108 80.5501 88.3241 81.0734 88.3241 81.5947C88.3241 82.1104 88.3127 82.6261 88.2823 83.1417C88.2691 83.3787 88.2501 83.6138 88.2255 83.8489C88.2217 83.8887 88.216 83.9285 88.2122 83.9683C88.197 84.0517 88.1838 84.137 88.1686 84.2205C88.0738 84.7058 88.3051 85.267 88.8302 85.3864C89.3004 85.4926 89.8938 85.2442 89.9962 84.7247C90.1971 83.701 90.2199 82.6336 90.218 81.5928C90.218 80.5482 90.1839 79.4904 90.0095 78.4571C89.9185 77.9187 89.3042 77.7159 88.8435 77.7955Z" fill="black"/>
<path d="M92.821 59.6315C91.9869 59.3888 91.1584 59.859 90.4759 60.2912C90.1365 60.5055 89.8067 60.7349 89.4692 60.9529C89.3232 61.0477 89.1772 61.1406 89.0275 61.2259C88.9479 61.2714 88.8682 61.315 88.7867 61.3567C88.7715 61.3643 88.7753 61.3643 88.7659 61.3681C88.7564 61.37 88.7583 61.3681 88.7317 61.3776C88.3601 61.5027 88.0018 61.8648 88.036 62.2913C88.1289 63.4611 88.2445 64.6327 88.254 65.8081C88.2635 66.9816 88.144 68.1495 87.9942 69.3116C87.9279 69.8197 88.4777 70.2595 88.9422 70.2595C89.509 70.2595 89.8237 69.8216 89.8901 69.3116C90.0398 68.1495 90.1593 66.9816 90.1498 65.8081C90.1422 64.8204 90.0588 63.8327 89.9754 62.8449C90.3413 62.6383 90.6939 62.4089 91.0446 62.1776C91.3328 61.988 91.621 61.7984 91.9243 61.6354C91.9281 61.7093 91.9357 61.7833 91.9395 61.8572C91.9584 62.261 91.9622 62.6667 91.9584 63.0724C91.9509 63.8592 91.9148 64.6441 91.8712 65.4289C91.8447 65.9408 92.3262 66.3769 92.8191 66.3769C93.3576 66.3807 93.7424 65.9465 93.769 65.4327C93.822 64.4545 93.8675 63.4743 93.8543 62.4942C93.841 61.5539 93.9661 59.9652 92.821 59.6315ZM91.8921 61.1027C91.8902 61.078 91.8921 61.078 91.8921 61.1027V61.1027Z" fill="black"/>
</g>
<defs>
<filter id="filter0_d_4_9" x="96" y="101" width="28" height="28" filterUnits="userSpaceOnUse" color-interpolation-filters="sRGB">
<feFlood flood-opacity="0" result="BackgroundImageFix"/>
<feColorMatrix in="SourceAlpha" type="matrix" values="0 0 0 0 0 0 0 0 0 0 0 0 0 0 0 0 0 0 127 0" result="hardAlpha"/>
<feOffset dy="4"/>
<feGaussianBlur stdDeviation="2"/>
<feComposite in2="hardAlpha" operator="out"/>
<feColorMatrix type="matrix" values="0 0 0 0 0 0 0 0 0 0 0 0 0 0 0 0 0 0 0.25 0"/>
<feBlend mode="normal" in2="BackgroundImageFix" result="effect1_dropShadow_4_9"/>
<feBlend mode="normal" in="SourceGraphic" in2="effect1_dropShadow_4_9" result="shape"/>
</filter>
<clipPath id="clip0_4_9">
<rect width="128" height="128" fill="white"/>
</clipPath>
</defs>
</svg>
